<svg width="80" height="47" viewBox="0 0 80 47" fill="none" xmlns="http://www.w3.org/2000/svg">
<mask id="mask0_599_34" style="mask-type:luminance" maskUnits="userSpaceOnUse" x="6" y="4" width="69" height="41">
<path d="M15.3501 4.00004C14.0261 4.00004 12.7821 4.92937 12.5741 6.07471L6.03009 41.9814C5.82075 43.1267 6.72607 44.0574 8.05141 44.0574H65.5487C66.8741 44.0574 68.1167 43.1267 68.3261 41.9814L74.8687 6.07471C75.0781 4.92937 74.1741 4.00004 72.8487 4.00004H15.3501Z" fill="white"/>
<path d="M15.3501 4.00004C14.0261 4.00004 12.7821 4.92937 12.5741 6.07471L6.03009 41.9814C5.82075 43.1267 6.72607 44.0574 8.05141 44.0574H65.5487C66.8741 44.0574 68.1167 43.1267 68.3261 41.9814L74.8687 6.07471C75.0781 4.92937 74.1741 4.00004 72.8487 4.00004H15.3501Z" stroke="white"/>
</mask>
<g mask="url(#mask0_599_34)">
<path d="M7.07031 17.2719H80.0516L82.4676 3.75985H9.48631L7.07031 17.2719Z" fill="#EC2A25"/>
<path d="M7.07031 17.2719H80.0516L82.4676 3.75985H9.48631L7.07031 17.2719Z" stroke=""/>
<path d="M4.65356 30.7842H77.6349L80.0509 17.2722H7.06956L4.65356 30.7842Z" fill="white"/>
<path d="M4.65356 30.7842H77.6349L80.0509 17.2722H7.06956L4.65356 30.7842Z" stroke=""/>
<path d="M2.23706 44.2966H75.2184L77.6344 30.7846H4.65306L2.23706 44.2966Z" fill="#006AB6"/>
<path d="M2.23706 44.2966H75.2184L77.6344 30.7846H4.65306L2.23706 44.2966Z" stroke=""/>
</g>
<path d="M14.5751 2.5H71.6773C74.4709 2.5 76.5895 5.01885 76.1107 7.77115L70.3707 40.7711C69.9958 42.9265 68.125 44.5 65.9373 44.5H8.42508C5.60947 44.5 3.48539 41.9435 4.00124 39.1756L10.1513 6.17556C10.5483 4.04491 12.4078 2.5 14.5751 2.5Z" stroke="black" stroke-width="5"/>
</svg>
